<svg width="50" height="50" viewBox="0 0 50 50" fill="none" xmlns="http://www.w3.org/2000/svg"><g clip-path="url(#clip0)"><path d="M25 50C38.8071 50 50 38.8071 50 25C50 11.1929 38.8071 0 25 0C11.1929 0 0 11.1929 0 25C0 38.8071 11.1929 50 25 50Z" fill="black" fill-opacity="0.6"></path></g><path d="M17 15H34" stroke="#FFC500" stroke-width="5" stroke-linecap="round"></path><path d="M32.6795 27.6446L27.2873 21.0701C26.1171 19.6433 23.8828 19.6433 22.7126 21.0701L17.3205 27.6446C16.5587 28.5734 17.2406 29.9449 18.4642 29.9449H21.6009C21.7538 29.9449 21.8777 30.0651 21.8777 30.2134V35.0357C21.8777 36.6729 23.2459 38 24.9335 38C26.6213 38 27.9894 36.6729 27.9894 35.0357V30.2134C27.9894 30.0651 28.1133 29.9449 28.2662 29.9449H31.5357C32.7594 29.9449 33.4413 28.5734 32.6795 27.6446Z" fill="#FFC500"></path><defs><clipPath id="clip0"><rect width="50" height="50" fill="white"></rect></clipPath></defs></svg>